<svg width="15" height="15" xmlns="http://www.w3.org/2000/svg" xmlns:xlink="http://www.w3.org/1999/xlink" xmlns:svgjs="http://svgjs.com/svgjs" viewBox="286 171 15 15"><svg width="15" height="15" xmlns="http://www.w3.org/2000/svg" xmlns:xlink="http://www.w3.org/1999/xlink" xmlns:svgjs="http://svgjs.com/svgjs" viewBox="286 171 15 15" x="286" y="171"><svg width="15" height="15" xmlns="http://www.w3.org/2000/svg" xmlns:xlink="http://www.w3.org/1999/xlink" xmlns:svgjs="http://svgjs.com/svgjs" viewBox="286 171 15 15" x="286" y="171"><svg width="15" height="15" xmlns="http://www.w3.org/2000/svg" xmlns:xlink="http://www.w3.org/1999/xlink" xmlns:svgjs="http://svgjs.com/svgjs" fill="#33cb98" x="286" y="171"><svg xmlns="http://www.w3.org/2000/svg" xmlns:xlink="http://www.w3.org/1999/xlink" width="15" height="15" viewBox="0.5 0.5 13.638 13.638"><path paint-order="stroke fill markers" fill-rule="evenodd" d="M12.98 8.666a.532.532 0 1 0-.988.4l.628 1.552-1.864-.822a.532.532 0 0 0-.424-.002c-.636.271-1.319.41-2.028.41-2.852 0-4.768-2.234-4.768-4.32 0-2.381 2.14-4.319 4.768-4.319 2.63 0 4.769 1.938 4.769 4.32 0 .185-.018.407-.048.61a.533.533 0 0 0 1.054.157c.037-.256.058-.528.058-.768 0-1.447-.612-2.805-1.725-3.823C11.312 1.054 9.854.5 8.304.5c-1.549 0-3.008.554-4.108 1.56-.994.91-1.589 2.092-1.704 3.366C1.242 6.254.5 7.582.5 9.01c0 .893.281 1.74.816 2.47L.54 13.406a.531.531 0 0 0 .708.687l2.244-.99c.564.21 1.161.317 1.777.317.013 0 .026 0 .039-.002a5.043 5.043 0 0 0 2.507-.68 4.593 4.593 0 0 0 1.612-1.569c.378-.067.747-.17 1.106-.307l2.859 1.26a.53.53 0 0 0 .585-.105.534.534 0 0 0 .123-.582l-1.12-2.769zm-7.712 3.687l-.022.002a3.996 3.996 0 0 1-1.557-.319.532.532 0 0 0-.423.003l-1.248.55.402-.996a.533.533 0 0 0-.088-.545 3.109 3.109 0 0 1-.767-2.037c0-.851.358-1.658.985-2.27.195 1.064.746 2.081 1.576 2.88 1.033.995 2.4 1.571 3.875 1.64-.693.683-1.684 1.092-2.733 1.092z"/></svg></svg><svg width="2" height="2" xmlns="http://www.w3.org/2000/svg" xmlns:xlink="http://www.w3.org/1999/xlink" xmlns:svgjs="http://svgjs.com/svgjs" fill="#33cb98" x="293" y="176"><svg xmlns="http://www.w3.org/2000/svg" xmlns:xlink="http://www.w3.org/1999/xlink" width="2" height="2" viewBox="0.745 0.375 1.066 1.065"><path paint-order="stroke fill markers" fill-rule="evenodd" d="M1.277 1.44a.532.532 0 1 1 0-1.065.532.532 0 0 1 0 1.065z"/></svg></svg><svg width="2" height="2" xmlns="http://www.w3.org/2000/svg" xmlns:xlink="http://www.w3.org/1999/xlink" xmlns:svgjs="http://svgjs.com/svgjs" fill="#33cb98" x="295" y="176"><svg xmlns="http://www.w3.org/2000/svg" xmlns:xlink="http://www.w3.org/1999/xlink" width="2" height="2" viewBox="0.876 0.375 1.066 1.065"><path paint-order="stroke fill markers" fill-rule="evenodd" d="M1.409 1.44A.533.533 0 1 1 1.407.375.533.533 0 0 1 1.41 1.44z"/></svg></svg><svg width="2" height="2" xmlns="http://www.w3.org/2000/svg" xmlns:xlink="http://www.w3.org/1999/xlink" xmlns:svgjs="http://svgjs.com/svgjs" fill="#33cb98" x="291" y="176"><svg xmlns="http://www.w3.org/2000/svg" width="2" height="2" viewBox="0.614 0.375 1.066 1.065"><path paint-order="stroke fill markers" fill-rule="evenodd" d="M1.147 1.44A.533.533 0 1 1 1.145.375a.533.533 0 0 1 .002 1.065z"/></svg></svg></svg></svg></svg>